<?xml version="1.0" encoding="utf-8" standalone="no"?>
<!DOCTYPE svg PUBLIC "-//W3C//DTD SVG 1.1//EN"
  "http://www.w3.org/Graphics/SVG/1.1/DTD/svg11.dtd">
<!-- Created with matplotlib (http://matplotlib.org/) -->
<svg height="345pt" version="1.1" viewBox="0 0 460 345" width="460pt" xmlns="http://www.w3.org/2000/svg" xmlns:xlink="http://www.w3.org/1999/xlink">
 <defs>
  <style type="text/css">
*{stroke-linecap:butt;stroke-linejoin:round;}
  </style>
 </defs>
 <g id="figure_1">
  <g id="patch_1">
   <path d="M 0 345.6 
L 460.8 345.6 
L 460.8 0 
L 0 0 
z
" style="fill:#ffffff;"/>
  </g>
  <g id="axes_1">
   <g id="patch_2">
    <path d="M 85.218124 307.584 
L 315.677876 307.584 
L 315.677876 41.472 
L 85.218124 41.472 
z
" style="fill:#ffffff;"/>
   </g>
   <g id="matplotlib.axis_1">
    <g id="xtick_1">
     <g id="line2d_1">
      <defs>
       <path d="M 0 0 
L 0 3.5 
" id="mfd8c9c3d17" style="stroke:#000000;stroke-width:0.8;"/>
      </defs>
      <g>
       <use style="stroke:#000000;stroke-width:0.8;" x="85.218124" xlink:href="#mfd8c9c3d17" y="307.584"/>
      </g>
     </g>
     <g id="text_1">
      <!-- 0.0 -->
      <defs>
       <path d="M 31.78125 3.421875 
Q 39.265625 3.421875 42.96875 11.625 
Q 46.6875 19.828125 46.6875 36.375 
Q 46.6875 52.984375 42.96875 61.1875 
Q 39.265625 69.390625 31.78125 69.390625 
Q 24.3125 69.390625 20.59375 61.1875 
Q 16.890625 52.984375 16.890625 36.375 
Q 16.890625 19.828125 20.59375 11.625 
Q 24.3125 3.421875 31.78125 3.421875 
z
M 31.78125 -1.421875 
Q 19.921875 -1.421875 13.25 8.53125 
Q 6.59375 18.5 6.59375 36.375 
Q 6.59375 54.296875 13.25 64.25 
Q 19.921875 74.21875 31.78125 74.21875 
Q 43.703125 74.21875 50.34375 64.25 
Q 56.984375 54.296875 56.984375 36.375 
Q 56.984375 18.5 50.34375 8.53125 
Q 43.703125 -1.421875 31.78125 -1.421875 
z
" id="DejaVuSerif-30"/>
       <path d="M 9.421875 5.078125 
Q 9.421875 7.8125 11.28125 9.71875 
Q 13.140625 11.625 15.921875 11.625 
Q 18.609375 11.625 20.5 9.71875 
Q 22.40625 7.8125 22.40625 5.078125 
Q 22.40625 2.390625 20.5 0.484375 
Q 18.609375 -1.421875 15.921875 -1.421875 
Q 13.140625 -1.421875 11.28125 0.453125 
Q 9.421875 2.34375 9.421875 5.078125 
z
" id="DejaVuSerif-2e"/>
      </defs>
      <g transform="translate(77.266561 322.182437)scale(0.1 -0.1)">
       <use xlink:href="#DejaVuSerif-30"/>
       <use x="63.623047" xlink:href="#DejaVuSerif-2e"/>
       <use x="95.410156" xlink:href="#DejaVuSerif-30"/>
      </g>
     </g>
    </g>
    <g id="xtick_2">
     <g id="line2d_2">
      <g>
       <use style="stroke:#000000;stroke-width:0.8;" x="118.482124" xlink:href="#mfd8c9c3d17" y="307.584"/>
      </g>
     </g>
     <g id="text_2">
      <!-- 0.5 -->
      <defs>
       <path d="M 50.296875 72.90625 
L 50.296875 64.890625 
L 16.890625 64.890625 
L 16.890625 44 
Q 19.4375 45.75 22.828125 46.625 
Q 26.21875 47.515625 30.421875 47.515625 
Q 42.234375 47.515625 49.0625 40.96875 
Q 55.90625 34.421875 55.90625 23.09375 
Q 55.90625 11.53125 49 5.046875 
Q 42.09375 -1.421875 29.59375 -1.421875 
Q 24.5625 -1.421875 19.28125 -0.1875 
Q 14.015625 1.03125 8.5 3.515625 
L 8.5 17.671875 
L 14.015625 17.671875 
Q 14.453125 10.75 18.421875 7.078125 
Q 22.40625 3.421875 29.59375 3.421875 
Q 37.3125 3.421875 41.453125 8.5 
Q 45.609375 13.578125 45.609375 23.09375 
Q 45.609375 32.5625 41.484375 37.609375 
Q 37.359375 42.671875 29.59375 42.671875 
Q 25.203125 42.671875 21.84375 41.109375 
Q 18.5 39.546875 15.921875 36.28125 
L 11.71875 36.28125 
L 11.71875 72.90625 
z
" id="DejaVuSerif-35"/>
      </defs>
      <g transform="translate(110.530561 322.182437)scale(0.1 -0.1)">
       <use xlink:href="#DejaVuSerif-30"/>
       <use x="63.623047" xlink:href="#DejaVuSerif-2e"/>
       <use x="95.410156" xlink:href="#DejaVuSerif-35"/>
      </g>
     </g>
    </g>
    <g id="xtick_3">
     <g id="line2d_3">
      <g>
       <use style="stroke:#000000;stroke-width:0.8;" x="151.746124" xlink:href="#mfd8c9c3d17" y="307.584"/>
      </g>
     </g>
     <g id="text_3">
      <!-- 1.0 -->
      <defs>
       <path d="M 14.203125 0 
L 14.203125 5.171875 
L 26.90625 5.171875 
L 26.90625 65.828125 
L 12.203125 56.296875 
L 12.203125 62.703125 
L 29.984375 74.21875 
L 36.71875 74.21875 
L 36.71875 5.171875 
L 49.421875 5.171875 
L 49.421875 0 
z
" id="DejaVuSerif-31"/>
      </defs>
      <g transform="translate(143.794561 322.182437)scale(0.1 -0.1)">
       <use xlink:href="#DejaVuSerif-31"/>
       <use x="63.623047" xlink:href="#DejaVuSerif-2e"/>
       <use x="95.410156" xlink:href="#DejaVuSerif-30"/>
      </g>
     </g>
    </g>
    <g id="xtick_4">
     <g id="line2d_4">
      <g>
       <use style="stroke:#000000;stroke-width:0.8;" x="185.010124" xlink:href="#mfd8c9c3d17" y="307.584"/>
      </g>
     </g>
     <g id="text_4">
      <!-- 1.5 -->
      <g transform="translate(177.058561 322.182437)scale(0.1 -0.1)">
       <use xlink:href="#DejaVuSerif-31"/>
       <use x="63.623047" xlink:href="#DejaVuSerif-2e"/>
       <use x="95.410156" xlink:href="#DejaVuSerif-35"/>
      </g>
     </g>
    </g>
    <g id="xtick_5">
     <g id="line2d_5">
      <g>
       <use style="stroke:#000000;stroke-width:0.8;" x="218.274124" xlink:href="#mfd8c9c3d17" y="307.584"/>
      </g>
     </g>
     <g id="text_5">
      <!-- 2.0 -->
      <defs>
       <path d="M 12.796875 55.515625 
L 7.328125 55.515625 
L 7.328125 68.5 
Q 12.546875 71.296875 17.84375 72.75 
Q 23.140625 74.21875 28.21875 74.21875 
Q 39.59375 74.21875 46.1875 68.703125 
Q 52.78125 63.1875 52.78125 53.71875 
Q 52.78125 43.015625 37.84375 28.125 
Q 36.671875 27 36.078125 26.421875 
L 17.671875 8.015625 
L 48.09375 8.015625 
L 48.09375 17 
L 53.8125 17 
L 53.8125 0 
L 6.78125 0 
L 6.78125 5.328125 
L 28.90625 27.390625 
Q 36.234375 34.71875 39.359375 40.84375 
Q 42.484375 46.96875 42.484375 53.71875 
Q 42.484375 61.078125 38.640625 65.234375 
Q 34.8125 69.390625 28.078125 69.390625 
Q 21.09375 69.390625 17.28125 65.921875 
Q 13.484375 62.453125 12.796875 55.515625 
z
" id="DejaVuSerif-32"/>
      </defs>
      <g transform="translate(210.322561 322.182437)scale(0.1 -0.1)">
       <use xlink:href="#DejaVuSerif-32"/>
       <use x="63.623047" xlink:href="#DejaVuSerif-2e"/>
       <use x="95.410156" xlink:href="#DejaVuSerif-30"/>
      </g>
     </g>
    </g>
    <g id="xtick_6">
     <g id="line2d_6">
      <g>
       <use style="stroke:#000000;stroke-width:0.8;" x="251.538124" xlink:href="#mfd8c9c3d17" y="307.584"/>
      </g>
     </g>
     <g id="text_6">
      <!-- 2.5 -->
      <g transform="translate(243.586561 322.182437)scale(0.1 -0.1)">
       <use xlink:href="#DejaVuSerif-32"/>
       <use x="63.623047" xlink:href="#DejaVuSerif-2e"/>
       <use x="95.410156" xlink:href="#DejaVuSerif-35"/>
      </g>
     </g>
    </g>
    <g id="xtick_7">
     <g id="line2d_7">
      <g>
       <use style="stroke:#000000;stroke-width:0.8;" x="284.802124" xlink:href="#mfd8c9c3d17" y="307.584"/>
      </g>
     </g>
     <g id="text_7">
      <!-- 3.0 -->
      <defs>
       <path d="M 9.71875 69.828125 
Q 15.4375 71.96875 20.671875 73.09375 
Q 25.921875 74.21875 30.515625 74.21875 
Q 41.21875 74.21875 47.21875 69.59375 
Q 53.21875 64.984375 53.21875 56.78125 
Q 53.21875 50.203125 49.0625 45.78125 
Q 44.921875 41.359375 37.3125 39.796875 
Q 46.296875 38.53125 51.25 33.28125 
Q 56.203125 28.03125 56.203125 19.671875 
Q 56.203125 9.46875 49.34375 4.015625 
Q 42.484375 -1.421875 29.59375 -1.421875 
Q 23.875 -1.421875 18.421875 -0.1875 
Q 12.984375 1.03125 7.625 3.515625 
L 7.625 17.671875 
L 13.09375 17.671875 
Q 13.578125 10.640625 17.828125 7.03125 
Q 22.078125 3.421875 29.78125 3.421875 
Q 37.25 3.421875 41.578125 7.734375 
Q 45.90625 12.0625 45.90625 19.578125 
Q 45.90625 28.171875 41.453125 32.59375 
Q 37.015625 37.015625 28.421875 37.015625 
L 23.78125 37.015625 
L 23.78125 42 
L 26.21875 42 
Q 34.765625 42 39.03125 45.53125 
Q 43.3125 49.078125 43.3125 56.203125 
Q 43.3125 62.59375 39.796875 65.984375 
Q 36.28125 69.390625 29.6875 69.390625 
Q 23.09375 69.390625 19.453125 66.265625 
Q 15.828125 63.140625 15.1875 56.984375 
L 9.71875 56.984375 
z
" id="DejaVuSerif-33"/>
      </defs>
      <g transform="translate(276.850561 322.182437)scale(0.1 -0.1)">
       <use xlink:href="#DejaVuSerif-33"/>
       <use x="63.623047" xlink:href="#DejaVuSerif-2e"/>
       <use x="95.410156" xlink:href="#DejaVuSerif-30"/>
      </g>
     </g>
    </g>
   </g>
   <g id="matplotlib.axis_2">
    <g id="ytick_1">
     <g id="line2d_8">
      <defs>
       <path d="M 0 0 
L -3.5 0 
" id="md6995b4deb" style="stroke:#000000;stroke-width:0.8;"/>
      </defs>
      <g>
       <use style="stroke:#000000;stroke-width:0.8;" x="85.218124" xlink:href="#md6995b4deb" y="307.584"/>
      </g>
     </g>
     <g id="text_8">
      <!-- −1.0 -->
      <defs>
       <path d="M 10.59375 35.296875 
L 73.1875 35.296875 
L 73.1875 27.390625 
L 10.59375 27.390625 
z
" id="DejaVuSerif-2212"/>
      </defs>
      <g transform="translate(53.935311 311.383219)scale(0.1 -0.1)">
       <use xlink:href="#DejaVuSerif-2212"/>
       <use x="83.789062" xlink:href="#DejaVuSerif-31"/>
       <use x="147.412109" xlink:href="#DejaVuSerif-2e"/>
       <use x="179.199219" xlink:href="#DejaVuSerif-30"/>
      </g>
     </g>
    </g>
    <g id="ytick_2">
     <g id="line2d_9">
      <g>
       <use style="stroke:#000000;stroke-width:0.8;" x="85.218124" xlink:href="#md6995b4deb" y="274.32"/>
      </g>
     </g>
     <g id="text_9">
      <!-- −0.5 -->
      <g transform="translate(53.935311 278.119219)scale(0.1 -0.1)">
       <use xlink:href="#DejaVuSerif-2212"/>
       <use x="83.789062" xlink:href="#DejaVuSerif-30"/>
       <use x="147.412109" xlink:href="#DejaVuSerif-2e"/>
       <use x="179.199219" xlink:href="#DejaVuSerif-35"/>
      </g>
     </g>
    </g>
    <g id="ytick_3">
     <g id="line2d_10">
      <g>
       <use style="stroke:#000000;stroke-width:0.8;" x="85.218124" xlink:href="#md6995b4deb" y="241.056"/>
      </g>
     </g>
     <g id="text_10">
      <!-- 0.0 -->
      <g transform="translate(62.314999 244.855219)scale(0.1 -0.1)">
       <use xlink:href="#DejaVuSerif-30"/>
       <use x="63.623047" xlink:href="#DejaVuSerif-2e"/>
       <use x="95.410156" xlink:href="#DejaVuSerif-30"/>
      </g>
     </g>
    </g>
    <g id="ytick_4">
     <g id="line2d_11">
      <g>
       <use style="stroke:#000000;stroke-width:0.8;" x="85.218124" xlink:href="#md6995b4deb" y="207.792"/>
      </g>
     </g>
     <g id="text_11">
      <!-- 0.5 -->
      <g transform="translate(62.314999 211.591219)scale(0.1 -0.1)">
       <use xlink:href="#DejaVuSerif-30"/>
       <use x="63.623047" xlink:href="#DejaVuSerif-2e"/>
       <use x="95.410156" xlink:href="#DejaVuSerif-35"/>
      </g>
     </g>
    </g>
    <g id="ytick_5">
     <g id="line2d_12">
      <g>
       <use style="stroke:#000000;stroke-width:0.8;" x="85.218124" xlink:href="#md6995b4deb" y="174.528"/>
      </g>
     </g>
     <g id="text_12">
      <!-- 1.0 -->
      <g transform="translate(62.314999 178.327219)scale(0.1 -0.1)">
       <use xlink:href="#DejaVuSerif-31"/>
       <use x="63.623047" xlink:href="#DejaVuSerif-2e"/>
       <use x="95.410156" xlink:href="#DejaVuSerif-30"/>
      </g>
     </g>
    </g>
    <g id="ytick_6">
     <g id="line2d_13">
      <g>
       <use style="stroke:#000000;stroke-width:0.8;" x="85.218124" xlink:href="#md6995b4deb" y="141.264"/>
      </g>
     </g>
     <g id="text_13">
      <!-- 1.5 -->
      <g transform="translate(62.314999 145.063219)scale(0.1 -0.1)">
       <use xlink:href="#DejaVuSerif-31"/>
       <use x="63.623047" xlink:href="#DejaVuSerif-2e"/>
       <use x="95.410156" xlink:href="#DejaVuSerif-35"/>
      </g>
     </g>
    </g>
    <g id="ytick_7">
     <g id="line2d_14">
      <g>
       <use style="stroke:#000000;stroke-width:0.8;" x="85.218124" xlink:href="#md6995b4deb" y="108"/>
      </g>
     </g>
     <g id="text_14">
      <!-- 2.0 -->
      <g transform="translate(62.314999 111.799219)scale(0.1 -0.1)">
       <use xlink:href="#DejaVuSerif-32"/>
       <use x="63.623047" xlink:href="#DejaVuSerif-2e"/>
       <use x="95.410156" xlink:href="#DejaVuSerif-30"/>
      </g>
     </g>
    </g>
    <g id="ytick_8">
     <g id="line2d_15">
      <g>
       <use style="stroke:#000000;stroke-width:0.8;" x="85.218124" xlink:href="#md6995b4deb" y="74.736"/>
      </g>
     </g>
     <g id="text_15">
      <!-- 2.5 -->
      <g transform="translate(62.314999 78.535219)scale(0.1 -0.1)">
       <use xlink:href="#DejaVuSerif-32"/>
       <use x="63.623047" xlink:href="#DejaVuSerif-2e"/>
       <use x="95.410156" xlink:href="#DejaVuSerif-35"/>
      </g>
     </g>
    </g>
    <g id="ytick_9">
     <g id="line2d_16">
      <g>
       <use style="stroke:#000000;stroke-width:0.8;" x="85.218124" xlink:href="#md6995b4deb" y="41.472"/>
      </g>
     </g>
     <g id="text_16">
      <!-- 3.0 -->
      <g transform="translate(62.314999 45.271219)scale(0.1 -0.1)">
       <use xlink:href="#DejaVuSerif-33"/>
       <use x="63.623047" xlink:href="#DejaVuSerif-2e"/>
       <use x="95.410156" xlink:href="#DejaVuSerif-30"/>
      </g>
     </g>
    </g>
   </g>
   <g id="PathCollection_1">
    <path clip-path="url(#pc16175fd15)" d="M 85.218124 108 
L 85.218124 241.056 
L 200.448 307.584 
L 315.677876 241.056 
L 315.677876 108 
L 200.448 41.472 
M 98.021443 115.392 
L 200.448 56.256 
L 302.874557 115.392 
L 302.874557 233.664 
L 200.448 292.8 
L 98.021443 233.664 
" style="fill:#2f0000;"/>
   </g>
   <g id="PathCollection_2">
    <path clip-path="url(#pc16175fd15)" d="M 98.021443 233.664 
L 200.448 292.8 
L 302.874557 233.664 
L 302.874557 115.392 
L 200.448 56.256 
L 98.021443 115.392 
M 110.824763 122.784 
L 200.448 71.04 
L 290.071237 122.784 
L 290.071237 226.272 
L 200.448 278.016 
L 110.824763 226.272 
" style="fill:#790000;"/>
   </g>
   <g id="PathCollection_3">
    <path clip-path="url(#pc16175fd15)" d="M 110.824763 226.272 
L 200.448 278.016 
L 290.071237 226.272 
L 290.071237 122.784 
L 200.448 71.04 
L 110.824763 122.784 
M 123.628083 130.176 
L 200.448 85.824 
L 277.267917 130.176 
L 277.267917 218.88 
L 200.448 263.232 
L 123.628083 218.88 
" style="fill:#c50000;"/>
   </g>
   <g id="PathCollection_4">
    <path clip-path="url(#pc16175fd15)" d="M 123.628083 218.88 
L 200.448 263.232 
L 277.267917 218.88 
L 277.267917 130.176 
L 200.448 85.824 
L 123.628083 130.176 
M 136.431402 137.568 
L 200.448 100.608 
L 264.464598 137.568 
L 264.464598 211.488 
L 200.448 248.448 
L 136.431402 211.488 
" style="fill:#ff1000;"/>
   </g>
   <g id="PathCollection_5">
    <path clip-path="url(#pc16175fd15)" d="M 136.431402 211.488 
L 200.448 248.448 
L 264.464598 211.488 
L 264.464598 137.568 
L 200.448 100.608 
L 136.431402 137.568 
M 149.234722 144.96 
L 200.448 115.392 
L 251.661278 144.96 
L 251.661278 204.096 
L 200.448 233.664 
L 149.234722 204.096 
" style="fill:#ff5c00;"/>
   </g>
   <g id="PathCollection_6">
    <path clip-path="url(#pc16175fd15)" d="M 149.234722 204.096 
L 200.448 233.664 
L 251.661278 204.096 
L 251.661278 144.96 
L 200.448 115.392 
L 149.234722 144.96 
M 162.038041 152.352 
L 200.448 130.176 
L 238.857959 152.352 
L 238.857959 196.704 
L 200.448 218.88 
L 162.038041 196.704 
" style="fill:#ffa500;"/>
   </g>
   <g id="PathCollection_7">
    <path clip-path="url(#pc16175fd15)" d="M 162.038041 196.704 
L 200.448 218.88 
L 238.857959 196.704 
L 238.857959 152.352 
L 200.448 130.176 
L 162.038041 152.352 
M 174.841361 159.744 
L 200.448 144.96 
L 226.054639 159.744 
L 226.054639 189.312 
L 200.448 204.096 
L 174.841361 189.312 
" style="fill:#ffef00;"/>
   </g>
   <g id="PathCollection_8">
    <path clip-path="url(#pc16175fd15)" d="M 174.841361 189.312 
L 200.448 204.096 
L 226.054639 189.312 
L 226.054639 159.744 
L 200.448 144.96 
L 174.841361 159.744 
M 187.64468 167.136 
L 200.448 159.744 
L 213.25132 167.136 
L 213.25132 181.92 
L 200.448 189.312 
L 187.64468 181.92 
" style="fill:#ffff5a;"/>
   </g>
   <g id="PathCollection_9">
    <path clip-path="url(#pc16175fd15)" d="M 187.64468 181.92 
L 200.448 189.312 
L 213.25132 181.92 
L 213.25132 167.136 
L 200.448 159.744 
L 187.64468 167.136 
M 200.448 174.528 
" style="fill:#ffffc8;"/>
   </g>
   <g id="patch_3">
    <path d="M 85.218124 307.584 
L 85.218124 41.472 
" style="fill:none;stroke:#000000;stroke-linecap:square;stroke-linejoin:miter;stroke-width:0.8;"/>
   </g>
   <g id="patch_4">
    <path d="M 315.677876 307.584 
L 315.677876 41.472 
" style="fill:none;stroke:#000000;stroke-linecap:square;stroke-linejoin:miter;stroke-width:0.8;"/>
   </g>
   <g id="patch_5">
    <path d="M 85.218124 307.584 
L 315.677876 307.584 
" style="fill:none;stroke:#000000;stroke-linecap:square;stroke-linejoin:miter;stroke-width:0.8;"/>
   </g>
   <g id="patch_6">
    <path d="M 85.218124 41.472 
L 315.677876 41.472 
" style="fill:none;stroke:#000000;stroke-linecap:square;stroke-linejoin:miter;stroke-width:0.8;"/>
   </g>
  </g>
  <g id="axes_2">
   <g id="patch_7">
    <path clip-path="url(#pc2825d016e)" d="M 361.152 307.584 
L 361.152 278.016 
L 361.152 71.04 
L 361.152 41.472 
L 374.4576 41.472 
L 374.4576 71.04 
L 374.4576 278.016 
L 374.4576 307.584 
z
" style="fill:#ffffff;stroke:#ffffff;stroke-linejoin:miter;stroke-width:0.01;"/>
   </g>
   <g id="matplotlib.axis_3"/>
   <g id="matplotlib.axis_4">
    <g id="ytick_10">
     <g id="line2d_17">
      <defs>
       <path d="M 0 0 
L 3.5 0 
" id="mfb2633e809" style="stroke:#000000;stroke-width:0.8;"/>
      </defs>
      <g>
       <use style="stroke:#000000;stroke-width:0.8;" x="374.4576" xlink:href="#mfb2633e809" y="307.584"/>
      </g>
     </g>
     <g id="text_17">
      <!-- −48.00 -->
      <defs>
       <path d="M 34.90625 24.703125 
L 34.90625 63.484375 
L 10.015625 24.703125 
z
M 56.390625 0 
L 23.1875 0 
L 23.1875 5.171875 
L 34.90625 5.171875 
L 34.90625 19.484375 
L 3.078125 19.484375 
L 3.078125 24.8125 
L 35.015625 74.21875 
L 44.671875 74.21875 
L 44.671875 24.703125 
L 58.59375 24.703125 
L 58.59375 19.484375 
L 44.671875 19.484375 
L 44.671875 5.171875 
L 56.390625 5.171875 
z
" id="DejaVuSerif-34"/>
       <path d="M 46.578125 19.921875 
Q 46.578125 27.734375 42.6875 32.046875 
Q 38.8125 36.375 31.78125 36.375 
Q 24.75 36.375 20.875 32.046875 
Q 17 27.734375 17 19.921875 
Q 17 12.0625 20.875 7.734375 
Q 24.75 3.421875 31.78125 3.421875 
Q 38.8125 3.421875 42.6875 7.734375 
Q 46.578125 12.0625 46.578125 19.921875 
z
M 44.578125 55.328125 
Q 44.578125 61.96875 41.203125 65.671875 
Q 37.84375 69.390625 31.78125 69.390625 
Q 25.78125 69.390625 22.390625 65.671875 
Q 19 61.96875 19 55.328125 
Q 19 48.640625 22.390625 44.921875 
Q 25.78125 41.21875 31.78125 41.21875 
Q 37.84375 41.21875 41.203125 44.921875 
Q 44.578125 48.640625 44.578125 55.328125 
z
M 39.3125 38.8125 
Q 47.609375 37.703125 52.25 32.6875 
Q 56.890625 27.6875 56.890625 19.921875 
Q 56.890625 9.671875 50.390625 4.125 
Q 43.890625 -1.421875 31.78125 -1.421875 
Q 19.734375 -1.421875 13.203125 4.125 
Q 6.6875 9.671875 6.6875 19.921875 
Q 6.6875 27.6875 11.328125 32.6875 
Q 15.96875 37.703125 24.3125 38.8125 
Q 16.9375 40.140625 13 44.40625 
Q 9.078125 48.6875 9.078125 55.328125 
Q 9.078125 64.109375 15.125 69.15625 
Q 21.1875 74.21875 31.78125 74.21875 
Q 42.390625 74.21875 48.4375 69.15625 
Q 54.5 64.109375 54.5 55.328125 
Q 54.5 48.6875 50.5625 44.40625 
Q 46.625 40.140625 39.3125 38.8125 
z
" id="DejaVuSerif-38"/>
      </defs>
      <g transform="translate(381.4576 311.383219)scale(0.1 -0.1)">
       <use xlink:href="#DejaVuSerif-2212"/>
       <use x="83.789062" xlink:href="#DejaVuSerif-34"/>
       <use x="147.412109" xlink:href="#DejaVuSerif-38"/>
       <use x="211.035156" xlink:href="#DejaVuSerif-2e"/>
       <use x="242.822266" xlink:href="#DejaVuSerif-30"/>
       <use x="306.445312" xlink:href="#DejaVuSerif-30"/>
      </g>
     </g>
    </g>
    <g id="ytick_11">
     <g id="line2d_18">
      <g>
       <use style="stroke:#000000;stroke-width:0.8;" x="374.4576" xlink:href="#mfb2633e809" y="278.016"/>
      </g>
     </g>
     <g id="text_18">
      <!-- −42.67 -->
      <defs>
       <path d="M 32.71875 3.421875 
Q 39.59375 3.421875 43.296875 8.46875 
Q 47.015625 13.53125 47.015625 23 
Q 47.015625 32.46875 43.296875 37.515625 
Q 39.59375 42.578125 32.71875 42.578125 
Q 25.734375 42.578125 22.0625 37.6875 
Q 18.40625 32.8125 18.40625 23.578125 
Q 18.40625 13.875 22.109375 8.640625 
Q 25.828125 3.421875 32.71875 3.421875 
z
M 16.796875 40.140625 
Q 20.125 43.796875 24.3125 45.59375 
Q 28.515625 47.40625 33.796875 47.40625 
Q 44.671875 47.40625 51 40.859375 
Q 57.328125 34.328125 57.328125 23 
Q 57.328125 11.921875 50.515625 5.25 
Q 43.703125 -1.421875 32.328125 -1.421875 
Q 19.96875 -1.421875 13.328125 7.78125 
Q 6.6875 17 6.6875 34.078125 
Q 6.6875 53.21875 14.546875 63.71875 
Q 22.40625 74.21875 36.71875 74.21875 
Q 40.578125 74.21875 44.828125 73.484375 
Q 49.078125 72.75 53.515625 71.296875 
L 53.515625 59.28125 
L 48 59.28125 
Q 47.40625 64.203125 44.234375 66.796875 
Q 41.0625 69.390625 35.6875 69.390625 
Q 26.21875 69.390625 21.578125 62.203125 
Q 16.9375 55.03125 16.796875 40.140625 
z
" id="DejaVuSerif-36"/>
       <path d="M 56.390625 67.921875 
L 27.875 0 
L 20.609375 0 
L 47.796875 64.890625 
L 14.109375 64.890625 
L 14.109375 55.90625 
L 8.40625 55.90625 
L 8.40625 72.90625 
L 56.390625 72.90625 
z
" id="DejaVuSerif-37"/>
      </defs>
      <g transform="translate(381.4576 281.815219)scale(0.1 -0.1)">
       <use xlink:href="#DejaVuSerif-2212"/>
       <use x="83.789062" xlink:href="#DejaVuSerif-34"/>
       <use x="147.412109" xlink:href="#DejaVuSerif-32"/>
       <use x="211.035156" xlink:href="#DejaVuSerif-2e"/>
       <use x="242.822266" xlink:href="#DejaVuSerif-36"/>
       <use x="306.445312" xlink:href="#DejaVuSerif-37"/>
      </g>
     </g>
    </g>
    <g id="ytick_12">
     <g id="line2d_19">
      <g>
       <use style="stroke:#000000;stroke-width:0.8;" x="374.4576" xlink:href="#mfb2633e809" y="248.448"/>
      </g>
     </g>
     <g id="text_19">
      <!-- −37.33 -->
      <g transform="translate(381.4576 252.247219)scale(0.1 -0.1)">
       <use xlink:href="#DejaVuSerif-2212"/>
       <use x="83.789062" xlink:href="#DejaVuSerif-33"/>
       <use x="147.412109" xlink:href="#DejaVuSerif-37"/>
       <use x="211.035156" xlink:href="#DejaVuSerif-2e"/>
       <use x="242.822266" xlink:href="#DejaVuSerif-33"/>
       <use x="306.445312" xlink:href="#DejaVuSerif-33"/>
      </g>
     </g>
    </g>
    <g id="ytick_13">
     <g id="line2d_20">
      <g>
       <use style="stroke:#000000;stroke-width:0.8;" x="374.4576" xlink:href="#mfb2633e809" y="218.88"/>
      </g>
     </g>
     <g id="text_20">
      <!-- −32.00 -->
      <g transform="translate(381.4576 222.679219)scale(0.1 -0.1)">
       <use xlink:href="#DejaVuSerif-2212"/>
       <use x="83.789062" xlink:href="#DejaVuSerif-33"/>
       <use x="147.412109" xlink:href="#DejaVuSerif-32"/>
       <use x="211.035156" xlink:href="#DejaVuSerif-2e"/>
       <use x="242.822266" xlink:href="#DejaVuSerif-30"/>
       <use x="306.445312" xlink:href="#DejaVuSerif-30"/>
      </g>
     </g>
    </g>
    <g id="ytick_14">
     <g id="line2d_21">
      <g>
       <use style="stroke:#000000;stroke-width:0.8;" x="374.4576" xlink:href="#mfb2633e809" y="189.312"/>
      </g>
     </g>
     <g id="text_21">
      <!-- −26.67 -->
      <g transform="translate(381.4576 193.111219)scale(0.1 -0.1)">
       <use xlink:href="#DejaVuSerif-2212"/>
       <use x="83.789062" xlink:href="#DejaVuSerif-32"/>
       <use x="147.412109" xlink:href="#DejaVuSerif-36"/>
       <use x="211.035156" xlink:href="#DejaVuSerif-2e"/>
       <use x="242.822266" xlink:href="#DejaVuSerif-36"/>
       <use x="306.445312" xlink:href="#DejaVuSerif-37"/>
      </g>
     </g>
    </g>
    <g id="ytick_15">
     <g id="line2d_22">
      <g>
       <use style="stroke:#000000;stroke-width:0.8;" x="374.4576" xlink:href="#mfb2633e809" y="159.744"/>
      </g>
     </g>
     <g id="text_22">
      <!-- −21.33 -->
      <g transform="translate(381.4576 163.543219)scale(0.1 -0.1)">
       <use xlink:href="#DejaVuSerif-2212"/>
       <use x="83.789062" xlink:href="#DejaVuSerif-32"/>
       <use x="147.412109" xlink:href="#DejaVuSerif-31"/>
       <use x="211.035156" xlink:href="#DejaVuSerif-2e"/>
       <use x="242.822266" xlink:href="#DejaVuSerif-33"/>
       <use x="306.445312" xlink:href="#DejaVuSerif-33"/>
      </g>
     </g>
    </g>
    <g id="ytick_16">
     <g id="line2d_23">
      <g>
       <use style="stroke:#000000;stroke-width:0.8;" x="374.4576" xlink:href="#mfb2633e809" y="130.176"/>
      </g>
     </g>
     <g id="text_23">
      <!-- −16.00 -->
      <g transform="translate(381.4576 133.975219)scale(0.1 -0.1)">
       <use xlink:href="#DejaVuSerif-2212"/>
       <use x="83.789062" xlink:href="#DejaVuSerif-31"/>
       <use x="147.412109" xlink:href="#DejaVuSerif-36"/>
       <use x="211.035156" xlink:href="#DejaVuSerif-2e"/>
       <use x="242.822266" xlink:href="#DejaVuSerif-30"/>
       <use x="306.445312" xlink:href="#DejaVuSerif-30"/>
      </g>
     </g>
    </g>
    <g id="ytick_17">
     <g id="line2d_24">
      <g>
       <use style="stroke:#000000;stroke-width:0.8;" x="374.4576" xlink:href="#mfb2633e809" y="100.608"/>
      </g>
     </g>
     <g id="text_24">
      <!-- −10.67 -->
      <g transform="translate(381.4576 104.407219)scale(0.1 -0.1)">
       <use xlink:href="#DejaVuSerif-2212"/>
       <use x="83.789062" xlink:href="#DejaVuSerif-31"/>
       <use x="147.412109" xlink:href="#DejaVuSerif-30"/>
       <use x="211.035156" xlink:href="#DejaVuSerif-2e"/>
       <use x="242.822266" xlink:href="#DejaVuSerif-36"/>
       <use x="306.445312" xlink:href="#DejaVuSerif-37"/>
      </g>
     </g>
    </g>
    <g id="ytick_18">
     <g id="line2d_25">
      <g>
       <use style="stroke:#000000;stroke-width:0.8;" x="374.4576" xlink:href="#mfb2633e809" y="71.04"/>
      </g>
     </g>
     <g id="text_25">
      <!-- −5.33 -->
      <g transform="translate(381.4576 74.839219)scale(0.1 -0.1)">
       <use xlink:href="#DejaVuSerif-2212"/>
       <use x="83.789062" xlink:href="#DejaVuSerif-35"/>
       <use x="147.412109" xlink:href="#DejaVuSerif-2e"/>
       <use x="179.199219" xlink:href="#DejaVuSerif-33"/>
       <use x="242.822266" xlink:href="#DejaVuSerif-33"/>
      </g>
     </g>
    </g>
    <g id="ytick_19">
     <g id="line2d_26">
      <g>
       <use style="stroke:#000000;stroke-width:0.8;" x="374.4576" xlink:href="#mfb2633e809" y="41.472"/>
      </g>
     </g>
     <g id="text_26">
      <!-- 0.00 -->
      <g transform="translate(381.4576 45.271219)scale(0.1 -0.1)">
       <use xlink:href="#DejaVuSerif-30"/>
       <use x="63.623047" xlink:href="#DejaVuSerif-2e"/>
       <use x="95.410156" xlink:href="#DejaVuSerif-30"/>
       <use x="159.033203" xlink:href="#DejaVuSerif-30"/>
      </g>
     </g>
    </g>
   </g>
   <g id="QuadMesh_1">
    <path clip-path="url(#pc2825d016e)" d="M 361.152 307.584 
L 374.4576 307.584 
L 374.4576 278.016 
L 361.152 278.016 
L 361.152 307.584 
" style="fill:#2f0000;"/>
    <path clip-path="url(#pc2825d016e)" d="M 361.152 278.016 
L 374.4576 278.016 
L 374.4576 248.448 
L 361.152 248.448 
L 361.152 278.016 
" style="fill:#790000;"/>
    <path clip-path="url(#pc2825d016e)" d="M 361.152 248.448 
L 374.4576 248.448 
L 374.4576 218.88 
L 361.152 218.88 
L 361.152 248.448 
" style="fill:#c50000;"/>
    <path clip-path="url(#pc2825d016e)" d="M 361.152 218.88 
L 374.4576 218.88 
L 374.4576 189.312 
L 361.152 189.312 
L 361.152 218.88 
" style="fill:#ff1000;"/>
    <path clip-path="url(#pc2825d016e)" d="M 361.152 189.312 
L 374.4576 189.312 
L 374.4576 159.744 
L 361.152 159.744 
L 361.152 189.312 
" style="fill:#ff5c00;"/>
    <path clip-path="url(#pc2825d016e)" d="M 361.152 159.744 
L 374.4576 159.744 
L 374.4576 130.176 
L 361.152 130.176 
L 361.152 159.744 
" style="fill:#ffa500;"/>
    <path clip-path="url(#pc2825d016e)" d="M 361.152 130.176 
L 374.4576 130.176 
L 374.4576 100.608 
L 361.152 100.608 
L 361.152 130.176 
" style="fill:#ffef00;"/>
    <path clip-path="url(#pc2825d016e)" d="M 361.152 100.608 
L 374.4576 100.608 
L 374.4576 71.04 
L 361.152 71.04 
L 361.152 100.608 
" style="fill:#ffff5a;"/>
    <path clip-path="url(#pc2825d016e)" d="M 361.152 71.04 
L 374.4576 71.04 
L 374.4576 41.472 
L 361.152 41.472 
L 361.152 71.04 
" style="fill:#ffffc8;"/>
   </g>
   <g id="patch_8">
    <path d="M 361.152 307.584 
L 361.152 278.016 
L 361.152 71.04 
L 361.152 41.472 
L 374.4576 41.472 
L 374.4576 71.04 
L 374.4576 278.016 
L 374.4576 307.584 
z
" style="fill:none;stroke:#000000;stroke-linejoin:miter;stroke-width:0.8;"/>
   </g>
  </g>
 </g>
 <defs>
  <clipPath id="pc16175fd15">
   <rect height="266.112" width="230.459752" x="85.218124" y="41.472"/>
  </clipPath>
  <clipPath id="pc2825d016e">
   <rect height="266.112" width="13.3056" x="361.152" y="41.472"/>
  </clipPath>
 </defs>
</svg>
